<mxfile host="app.diagrams.net" modified="2024-03-22T01:16:51.995Z" agent="Mozilla/5.0 (X11; Ubuntu; Linux x86_64; rv:124.0) Gecko/20100101 Firefox/124.0" etag="qdpew8-aR1Hue8d11heD" version="24.0.7" type="device">
  <diagram name="Page-1" id="90a13364-a465-7bf4-72fc-28e22215d7a0">
    <mxGraphModel dx="3630.5" dy="1128" grid="1" gridSize="10" guides="1" tooltips="1" connect="1" arrows="1" fold="1" page="1" pageScale="1.5" pageWidth="827" pageHeight="1169" background="none" math="0" shadow="0">
      <root>
        <mxCell id="0" style=";html=1;" />
        <mxCell id="1" style=";html=1;" parent="0" />
        <mxCell id="92aZnivEr3lnGOnxTlvm-25" style="edgeStyle=none;rounded=0;orthogonalLoop=1;jettySize=auto;html=1;exitX=0.5;exitY=1;exitDx=0;exitDy=0;entryX=0.5;entryY=0;entryDx=0;entryDy=0;strokeColor=default;align=center;verticalAlign=middle;fontFamily=Helvetica;fontSize=11;fontColor=default;labelBackgroundColor=default;startArrow=classic;endArrow=classic;" parent="1" source="3a17f1ce550125da-2" target="92aZnivEr3lnGOnxTlvm-22" edge="1">
          <mxGeometry relative="1" as="geometry" />
        </mxCell>
        <mxCell id="92aZnivEr3lnGOnxTlvm-35" style="edgeStyle=none;rounded=0;orthogonalLoop=1;jettySize=auto;html=1;exitX=1;exitY=0.5;exitDx=0;exitDy=0;entryX=0;entryY=0.5;entryDx=0;entryDy=0;strokeColor=default;align=center;verticalAlign=middle;fontFamily=Helvetica;fontSize=11;fontColor=default;labelBackgroundColor=default;startArrow=classic;endArrow=classic;" parent="1" source="3a17f1ce550125da-2" target="3a17f1ce550125da-10" edge="1">
          <mxGeometry relative="1" as="geometry" />
        </mxCell>
        <mxCell id="3a17f1ce550125da-2" value="&lt;font style=&quot;font-size: 24px;&quot;&gt;&lt;u&gt;&lt;b&gt;Webpages&lt;/b&gt;&lt;/u&gt;&lt;/font&gt;&lt;br&gt;&lt;div&gt;&lt;br&gt;&lt;/div&gt;&lt;div style=&quot;font-size: 20px;&quot;&gt;&lt;font style=&quot;font-size: 20px;&quot;&gt;http://localhost:8000&lt;/font&gt;&lt;/div&gt;&lt;div style=&quot;font-size: 20px;&quot;&gt;&lt;font style=&quot;font-size: 20px;&quot;&gt;http://192.168.0.90:8000&lt;/font&gt;&lt;br&gt;&lt;/div&gt;" style="whiteSpace=wrap;html=1;shadow=1;fontSize=18;fillColor=#f5f5f5;strokeColor=#666666;" parent="1" vertex="1">
          <mxGeometry x="435" y="438.5" width="230" height="176.5" as="geometry" />
        </mxCell>
        <mxCell id="3a17f1ce550125da-10" value="&lt;font style=&quot;font-size: 24px;&quot;&gt;&lt;u&gt;&lt;b&gt;Rosbridge&lt;br&gt;WebSocket Server&lt;/b&gt;&lt;/u&gt;&lt;/font&gt;&lt;div&gt;&lt;br&gt;&lt;/div&gt;&lt;font style=&quot;font-size: 20px;&quot;&gt;localhost:9090&lt;br&gt;192.168.0.90:9090&lt;/font&gt;" style="whiteSpace=wrap;html=1;shadow=1;fontSize=18;fillColor=#f5f5f5;strokeColor=#666666;" parent="1" vertex="1">
          <mxGeometry x="840" y="432.44" width="260" height="188.62" as="geometry" />
        </mxCell>
        <mxCell id="92aZnivEr3lnGOnxTlvm-4" value="&lt;font style=&quot;font-size: 26px;&quot;&gt;Husky PC&lt;/font&gt;" style="text;strokeColor=none;fillColor=none;html=1;fontSize=24;fontStyle=1;verticalAlign=middle;align=center;" parent="1" vertex="1">
          <mxGeometry x="820" y="110" width="100" height="40" as="geometry" />
        </mxCell>
        <mxCell id="92aZnivEr3lnGOnxTlvm-37" style="edgeStyle=none;rounded=0;orthogonalLoop=1;jettySize=auto;html=1;entryX=1;entryY=0.5;entryDx=0;entryDy=0;strokeColor=default;align=center;verticalAlign=middle;fontFamily=Helvetica;fontSize=11;fontColor=default;labelBackgroundColor=default;startArrow=classic;endArrow=classic;" parent="1" source="92aZnivEr3lnGOnxTlvm-12" target="3a17f1ce550125da-10" edge="1">
          <mxGeometry relative="1" as="geometry" />
        </mxCell>
        <mxCell id="92aZnivEr3lnGOnxTlvm-12" value="&lt;font style=&quot;font-size: 24px;&quot;&gt;&lt;b&gt;&lt;u&gt;ROS2 topics:&lt;/u&gt; &lt;/b&gt;&lt;/font&gt;&lt;br&gt;&lt;font style=&quot;font-size: 20px;&quot;&gt;/cmd_vel&lt;br&gt;/battery_percentage&lt;br&gt;/driver/right/temperature&lt;br&gt;/driver/left/temperature&lt;/font&gt;&lt;div&gt;&lt;br&gt;&lt;/div&gt;" style="whiteSpace=wrap;html=1;shadow=1;fontSize=18;fillColor=#f5f5f5;strokeColor=#666666;" parent="1" vertex="1">
          <mxGeometry x="1150" y="432.75" width="240" height="188.31" as="geometry" />
        </mxCell>
        <mxCell id="92aZnivEr3lnGOnxTlvm-17" value="" style="rounded=1;whiteSpace=wrap;html=1;fontFamily=Helvetica;fontSize=11;fontColor=default;labelBackgroundColor=default;fillColor=none;dashed=1;" parent="1" vertex="1">
          <mxGeometry x="300" y="420" width="500" height="580" as="geometry" />
        </mxCell>
        <mxCell id="92aZnivEr3lnGOnxTlvm-21" value="&lt;div style=&quot;font-size: 19px;&quot;&gt;&lt;font style=&quot;font-size: 24px;&quot;&gt;Flask Web Application&lt;/font&gt;&lt;/div&gt;" style="text;strokeColor=none;fillColor=none;html=1;fontSize=11;fontStyle=1;verticalAlign=middle;align=center;fontFamily=Helvetica;fontColor=default;labelBackgroundColor=default;" parent="1" vertex="1">
          <mxGeometry x="417.5" y="870" width="247.5" height="170" as="geometry" />
        </mxCell>
        <mxCell id="92aZnivEr3lnGOnxTlvm-22" value="&lt;font size=&quot;1&quot;&gt;&lt;span style=&quot;font-size: 24px;&quot;&gt;&lt;u&gt;&lt;b&gt;SQLite3 Database&lt;/b&gt;&lt;/u&gt;&lt;/span&gt;&lt;/font&gt;&lt;font style=&quot;font-size: 20px;&quot;&gt;&lt;br&gt;&lt;br&gt;User: id, username, password&lt;br&gt;Battery: id, state of charge, timestamp&lt;br&gt;Motor left: id, temperature, timestamp&lt;br&gt;Motor right: id, temperature, timestamp&lt;br&gt;&lt;/font&gt;&lt;br&gt;&lt;div style=&quot;font-size: 24px;&quot;&gt;&lt;font style=&quot;font-size: 24px;&quot;&gt;&lt;br&gt;&lt;/font&gt;&lt;/div&gt;" style="whiteSpace=wrap;html=1;shadow=1;fontSize=18;fillColor=#f5f5f5;strokeColor=#666666;" parent="1" vertex="1">
          <mxGeometry x="330" y="690" width="440" height="220" as="geometry" />
        </mxCell>
        <mxCell id="92aZnivEr3lnGOnxTlvm-26" value="&lt;div align=&quot;center&quot;&gt;&lt;font style=&quot;font-size: 24px;&quot;&gt;&lt;u&gt;&lt;b&gt;Web Video Server&lt;/b&gt;&lt;/u&gt;&lt;/font&gt;&lt;/div&gt;&lt;div&gt;&lt;font style=&quot;font-size: 24px;&quot;&gt;&lt;u&gt;&lt;br&gt;&lt;/u&gt;&lt;/font&gt;&lt;/div&gt;&lt;div style=&quot;font-size: 20px;&quot;&gt;&lt;font style=&quot;font-size: 20px;&quot;&gt;&lt;font style=&quot;font-size: 20px;&quot;&gt;&amp;nbsp;stream of camera image&lt;br&gt;http://localhost:8080/stream_viewer?topic=/image_raw&lt;/font&gt;&lt;font style=&quot;font-size: 20px;&quot;&gt;&lt;br&gt;&lt;/font&gt;&lt;/font&gt;&lt;/div&gt;" style="whiteSpace=wrap;html=1;shadow=1;fontSize=18;fillColor=#f5f5f5;strokeColor=#666666;" parent="1" vertex="1">
          <mxGeometry x="370" y="190" width="360" height="171" as="geometry" />
        </mxCell>
        <mxCell id="92aZnivEr3lnGOnxTlvm-38" value="&lt;font style=&quot;font-size: 24px;&quot;&gt;&lt;b&gt;&lt;u&gt;User device&lt;/u&gt;&lt;/b&gt;&lt;/font&gt;&lt;u&gt;&lt;font style=&quot;font-size: 24px;&quot;&gt;&lt;br&gt;&lt;/font&gt;&lt;/u&gt; &lt;br&gt;&lt;font style=&quot;font-size: 20px;&quot;&gt;mobile phone, tablet, desktop PC&lt;/font&gt;" style="whiteSpace=wrap;html=1;shadow=1;fontSize=18;fillColor=#f5f5f5;strokeColor=#666666;" parent="1" vertex="1">
          <mxGeometry x="-70" y="429.06" width="260" height="195.38" as="geometry" />
        </mxCell>
        <mxCell id="92aZnivEr3lnGOnxTlvm-44" style="edgeStyle=none;rounded=0;orthogonalLoop=1;jettySize=auto;html=1;exitX=1;exitY=0.5;exitDx=0;exitDy=0;entryX=0;entryY=0.5;entryDx=0;entryDy=0;strokeColor=default;align=center;verticalAlign=middle;fontFamily=Helvetica;fontSize=11;fontColor=default;labelBackgroundColor=default;startArrow=classic;endArrow=classic;" parent="1" source="92aZnivEr3lnGOnxTlvm-38" target="3a17f1ce550125da-2" edge="1">
          <mxGeometry relative="1" as="geometry" />
        </mxCell>
        <mxCell id="92aZnivEr3lnGOnxTlvm-46" value="&lt;font style=&quot;font-size: 20px;&quot;&gt;connect via browser&lt;/font&gt;" style="edgeLabel;html=1;align=center;verticalAlign=middle;resizable=0;points=[];fontFamily=Helvetica;fontSize=11;fontColor=default;labelBackgroundColor=default;" parent="92aZnivEr3lnGOnxTlvm-44" vertex="1" connectable="0">
          <mxGeometry x="0.072" y="-3" relative="1" as="geometry">
            <mxPoint x="-5" y="-20" as="offset" />
          </mxGeometry>
        </mxCell>
        <mxCell id="92aZnivEr3lnGOnxTlvm-54" value="" style="endArrow=classic;html=1;rounded=0;strokeColor=default;align=center;verticalAlign=middle;fontFamily=Helvetica;fontSize=11;fontColor=default;labelBackgroundColor=default;anchorPointDirection=0;entryX=0.5;entryY=0;entryDx=0;entryDy=0;exitX=0.5;exitY=1;exitDx=0;exitDy=0;" parent="1" source="92aZnivEr3lnGOnxTlvm-26" target="3a17f1ce550125da-2" edge="1">
          <mxGeometry width="50" height="50" relative="1" as="geometry">
            <mxPoint x="470" y="320" as="sourcePoint" />
            <mxPoint x="540" y="400" as="targetPoint" />
          </mxGeometry>
        </mxCell>
        <mxCell id="92aZnivEr3lnGOnxTlvm-55" value="&lt;font style=&quot;font-size: 20px;&quot;&gt;embedded&lt;/font&gt;" style="edgeLabel;html=1;align=center;verticalAlign=middle;resizable=0;points=[];fontFamily=Helvetica;fontSize=14;fontColor=default;labelBackgroundColor=default;" parent="92aZnivEr3lnGOnxTlvm-54" vertex="1" connectable="0">
          <mxGeometry x="0.0182" y="1" relative="1" as="geometry">
            <mxPoint y="-1" as="offset" />
          </mxGeometry>
        </mxCell>
        <mxCell id="92aZnivEr3lnGOnxTlvm-58" value="" style="rounded=0;whiteSpace=wrap;html=1;fontFamily=Helvetica;fontSize=11;fontColor=default;labelBackgroundColor=default;fillColor=none;metaEdit=1;strokeWidth=1;" parent="1" vertex="1">
          <mxGeometry x="260" y="160" width="1170" height="870" as="geometry" />
        </mxCell>
      </root>
    </mxGraphModel>
  </diagram>
</mxfile>
